<svg version="1.2" baseProfile="tiny" viewBox="0 0 15.734 18.000" xmlns:xlink="http://www.w3.org/1999/xlink" xmlns="http://www.w3.org/2000/svg">
<path style="fill:#ffffff;" d="M14.857,0.159L2.733,8.407c-0.061,0.041-0.108,0.086-0.15,0.132V0.928C2.583,0.419,2.166,0,1.653,0   H0.929C0.418,0,0,0.419,0,0.928v16.146C0,17.584,0.418,18,0.929,18h0.724c0.513,0,0.93-0.416,0.93-0.926v-7.53   c0.062,0.075,0.118,0.153,0.211,0.217l12.063,8.059c0.549,0.374,0.877,0.069,0.877-0.674V0.836   C15.734,0.092,15.406-0.214,14.857,0.159z"/>
</svg>