<svg version="1.2" baseProfile="tiny" viewBox="0 0 15.734 18.000" xmlns:xlink="http://www.w3.org/1999/xlink" xmlns="http://www.w3.org/2000/svg">
<path style="fill:#ffffff;" d="M0.878,17.841l12.124-8.248c0.06-0.041,0.107-0.086,0.149-0.132v7.61c0,0.51,0.417,0.929,0.931,0.929   h0.724c0.511,0,0.929-0.419,0.929-0.929V0.926c0-0.51-0.418-0.926-0.929-0.926h-0.724c-0.514,0-0.931,0.416-0.931,0.926v7.53   c-0.063-0.075-0.118-0.153-0.211-0.217L0.878,0.181C0.328-0.193,0,0.111,0,0.854v16.31C0,17.907,0.328,18.214,0.878,17.841z"/>
</svg>